<svg class="svg-icon" viewBox="0 0 24 24" fill="currentColor" xmlns="http://www.w3.org/2000/svg">
    <path
        d="M12 0.297C5.37 0.297 0 5.667 0 12.297c0 5.303 3.438 9.8 8.205 11.387.6.11.82-.26.82-.577v-2.234c-3.338.726-4.033-1.416-4.033-1.416-.546-1.387-1.333-1.757-1.333-1.757-1.09-.746.083-.73.083-.73 1.205.084 1.84 1.236 1.84 1.236 1.07 1.833 2.807 1.303 3.492.997.107-.775.418-1.303.762-1.602-2.665-.305-5.467-1.332-5.467-5.931 0-1.31.465-2.382 1.235-3.222-.123-.303-.535-1.523.117-3.176 0 0 1.008-.322 3.3 1.23a11.52 11.52 0 0 1 3-.404c1.02.005 2.045.137 3 .404 2.28-1.552 3.285-1.23 3.285-1.23.655 1.653.243 2.873.12 3.176.77.84 1.233 1.912 1.233 3.222 0 4.61-2.807 5.623-5.48 5.921.43.37.823 1.096.823 2.21v3.28c0 .32.217.694.825.576C20.565 22.092 24 17.595 24 12.297 24 5.667 18.627.297 12 .297z" />
</svg>